PathFileType	4	(X/Y/Z)	35_2_59_p1_0-690_filt_butterworth.trc
DataRate	CameraRate	NumFrames	NumMarkers	Units	OrigDataRate	OrigDataStartFrame	OrigNumFrames
59.0	59.0	7	27	m	59.0	345	690
Frame#	Time	RHip			RKnee			RAnkle			RBigToe			RSmallToe			RHeel			LHip			LKnee			LAnkle			LBigToe			LSmallToe			LHeel			Neck			Head			Nose			RShoulder			RElbow			RWrist			RThumb			RIndex			RPinky			LShoulder			LElbow			LWrist			LThumb			LIndex			LPinky			
		X1	Y1	Z1	X2	Y2	Z2	X3	Y3	Z3	X4	Y4	Z4	X5	Y5	Z5	X6	Y6	Z6	X7	Y7	Z7	X8	Y8	Z8	X9	Y9	Z9	X10	Y10	Z10	X11	Y11	Z11	X12	Y12	Z12	X13	Y13	Z13	X14	Y14	Z14	X15	Y15	Z15	X16	Y16	Z16	X17	Y17	Z17	X18	Y18	Z18	X19	Y19	Z19	X20	Y20	Z20	X21	Y21	Z21	X22	Y22	Z22	X23	Y23	Z23	X24	Y24	Z24	X25	Y25	Z25	X26	Y26	Z26	X27	Y27	Z27	
345	5.8474576271186445	0.4116911719175419	0.6222976785033497	0.43350570751674766	0.39370102259224166	0.9024873455386149	0.8083213466230778	0.39798690173819795	1.1599067406145038	1.188134612754229	0.3463278648087083	0.9634499715927323	1.2857745703235919	0.41634035831725963	0.9572700709828526	1.2764669158541186	0.36350478745772397	1.2707341035468687	1.2138689718651163	0.20155621478868457	0.6194463923477921	0.4237226979687937	0.19670183458159943	0.9223608611147569	0.8129569319952992	0.19805793523997234	1.1438186020715613	1.1878353996122482	0.20371759768740763	0.9614236032044926	1.2741281321625082	0.14414138539047575	0.9920995298430676	1.2657021844720557	0.20464463024789367	1.2346702937880545	1.2297369912360736	0.2998032094251778	0.3464438837830364	-0.0019490215463945854	0.3108500217456539	0.13023560927650912	-0.16423569186918324	0.2997298857872722	0.1504481779189769	-0.03246664026630535	0.4547637376560849	0.3300360735425538	0.0747304844343004	0.5372273659484833	0.5192548118181598	0.30096265660673693	0.5183849633984018	0.6138687911394586	0.5184062110364923	0.46111787307176366	0.6896145513556771	0.6034806959861656	0.4745589523559297	0.6996132485709052	0.629232761909126	0.5149691367053143	0.7448516057116713	0.6153263999985213	0.13096383123996108	0.37767943698942885	0.06098685425938098	0.09973713449400276	0.5465971327930419	0.28147739254962234	0.08508984157902481	0.6563737307907921	0.5248509874016578	0.11994441450278287	0.6932407872751725	0.6104772079373325	0.10730119040673566	0.6818145415202186	0.6303667065767736	0.05642359163775724	0.7500121820039349	0.6203720152493007
346	5.864406779661017	0.4118139752784344	0.622923201342862	0.4348948080568301	0.394713408432025	0.9040355065854931	0.8086612898986896	0.3979869450037575	1.1598916835665671	1.1881338096453598	0.34615919205732004	0.9631364807099805	1.2866157202373816	0.4159900118176757	0.9555611515117401	1.276485293437762	0.36338282686783385	1.270636489674312	1.212817664714331	0.2015514319317523	0.6178865637638092	0.42401778495438164	0.19674526671782638	0.9220399364538987	0.8132538790883076	0.1979559442483605	1.1433648716984781	1.187418094528285	0.20500455824100694	0.9623438574590519	1.274176654768207	0.1441509700009999	0.992129081721377	1.2657044835738824	0.20475925373945772	1.2342783851870058	1.2297727534617513	0.2998736046331373	0.34655249647548925	-0.005147271395400768	0.3133057072120824	0.13265899651963373	-0.17065700702064865	0.2988230981451394	0.15234274054579494	-0.035007071686046144	0.4542652232706445	0.33552118686039617	0.07297163139751398	0.5367446914432278	0.5194382567207351	0.3020732218637972	0.5165415392194177	0.6103390977508487	0.5189508163351305	0.4617753050301613	0.6832330878097871	0.6041366511963048	0.474044423498293	0.6958474066696784	0.6287084637512752	0.513823668790368	0.7333893185824194	0.6148714454262681	0.13147041841862464	0.3815269463340804	0.059535994881191726	0.09830637240320217	0.5414797234917553	0.28131465927094973	0.08370868934743325	0.6559206256966896	0.5253317511452347	0.12049095079964972	0.691813369293218	0.6117470750752768	0.10742298487948017	0.6808341008500457	0.6286598604778441	0.05671337993466759	0.7392715436452681	0.6215375015977733
347	5.88135593220339	0.4120535859983247	0.6240241932210744	0.4371302620309777	0.3970863877558306	0.9081366062012367	0.8081277017019312	0.3979975065295702	1.1598918182862015	1.1881285587727743	0.34570965469780174	0.9613992146718062	1.2870698209650844	0.41597420506069727	0.9556678019408639	1.2767353083008328	0.3632762707716604	1.270487514496862	1.2113956581775733	0.20150386932036712	0.6180862778781772	0.42520277050477534	0.1968259104958149	0.9213368983717615	0.8125890330175352	0.1976910650082435	1.1420489018746005	1.186276756414045	0.2049743463956074	0.9624474837379187	1.2742066779471266	0.144105054380353	0.9921537517496369	1.265722964018281	0.20482937133553386	1.2338230577374834	1.2297549774408658	0.29993162744456064	0.3500090570944092	-0.008192578286988432	0.3153785529287304	0.13743656086492076	-0.17822321659724433	0.29845117180923764	0.1533140970066915	-0.03598399508639126	0.45457480360911284	0.3416217706881717	0.07092234633339053	0.5356226069702357	0.5195923322892827	0.3034416490095149	0.5149317406693804	0.6074677364677968	0.5194225358528369	0.4618218681980607	0.6784664476693791	0.6044091825795296	0.4737846990935936	0.6946154703101706	0.6285495358223685	0.5124070406445823	0.7242455249338817	0.613715991307954	0.13066150371335655	0.38581673086091317	0.05796216137666344	0.09645648910397171	0.5370306044523241	0.2811281334821814	0.08292540112442269	0.65588144713432	0.5262967657180551	0.12171987409675963	0.6884711940777164	0.6133517757547127	0.10769402820463367	0.6813272887424453	0.628853607899966	0.05648876728405413	0.7300043853314075	0.6225902054755771
348	5.898305084745763	0.41232371133608303	0.6250783935145888	0.4389429740364508	0.400259602833801	0.9132163169046332	0.8062228041203477	0.39801033411088227	1.1598965014847518	1.1881147697849712	0.34486897758195456	0.9579878665345949	1.287547521078091	0.4160204116433144	0.9563576191957638	1.2771191310353445	0.36319983366053304	1.2703944472700828	1.2102936949893013	0.20143425354885924	0.6185799595817327	0.4264850649044132	0.19696081393963838	0.920514021768966	0.8113177689669187	0.1973372062597109	1.1402766994831135	1.1847461822492307	0.20364831562772065	0.9617122144031005	1.274206311435985	0.1440404229472593	0.9921863768099058	1.2657534440102447	0.20481063353607498	1.2334016346871588	1.2296777122144382	0.3000294121410077	0.35677898901632366	-0.011530124585533832	0.316818722250536	0.14438057662201384	-0.1855931644101903	0.2984350367852138	0.15343696087840095	-0.03664988199147241	0.45573301673434846	0.3466818291648487	0.069161991984783	0.5341485130434097	0.5199500057259889	0.3044439090968451	0.5133229711468802	0.6039969872388856	0.5197616049273569	0.4612661620367635	0.6776904894366997	0.6039870811577505	0.4737272724916545	0.6950750275119298	0.629155006486926	0.5112582079560262	0.7223560753091854	0.6125192122197084	0.12867972149676174	0.39135890684813823	0.05596363196859426	0.09464814248335465	0.5341483021598583	0.280475560047039	0.08202558072505607	0.656050462677487	0.527548836703421	0.12325963119456607	0.6838452921817302	0.61506305524434	0.10781919202106102	0.6825234474296982	0.6306034695088728	0.056204811595671915	0.7225648322389246	0.6234957197039481
349	5.915254237288136	0.412482913398558	0.6252814951937885	0.4392457899421701	0.40284779075775157	0.916591234190981	0.8040726050587171	0.39802012677421805	1.1598953350025019	1.1880826323459137	0.34378672668253507	0.9537337111576653	1.2879642866147436	0.4160391347596453	0.9570058926427116	1.2774226832095474	0.3631440402496592	1.270428838478026	1.2098308325920433	0.20137045263235293	0.6187866727728442	0.4273462592087869	0.19709863102120623	0.9199417080881536	0.8102006844324404	0.19705791965395036	1.138902988824252	1.1835787750737934	0.20225036702891752	0.9608812603095687	1.2741943205621782	0.14399897455276628	0.9922146451833492	1.2657828366773616	0.20475416085207135	1.233022026236531	1.2295192804567376	0.30012433195991456	0.3638329109193381	-0.014699839246022306	0.31762784673347083	0.15162851740452296	-0.19158513546990819	0.29850434619648125	0.15316094124890342	-0.03755684747732738	0.45724389022259726	0.3497131964168292	0.06806384758904777	0.5328115759627496	0.5215137499460171	0.3048271632933891	0.5111056375414343	0.5996680926287616	0.5204184491398317	0.4601538423306526	0.6812045202668777	0.6033525492993513	0.4736839800053898	0.69604466018897	0.630765679584569	0.5105803195322444	0.7271511176276791	0.6125402580787027	0.12634927365531262	0.39799599389280127	0.05359093520681834	0.09342918541095517	0.5326027874848046	0.27947261600683404	0.08085860236511765	0.6561251877349181	0.5285460807222866	0.12455649497939847	0.6802514014050213	0.6167259413895927	0.10748061009086583	0.6836306776347062	0.6330529049690287	0.05665753865966683	0.7157675559321934	0.6243533768025138
350	5.932203389830509	0.4124665722176884	0.6242131563569113	0.4376828730003118	0.404132316126578	0.9173886494860328	0.8030090557322533	0.39802610813781664	1.1598759939125192	1.1880295420829368	0.3428856107721987	0.9502695457246115	1.2876907994148188	0.41602533758769644	0.9572707433648928	1.2774295417894979	0.36307550015044704	1.2705414028779696	1.2097823740574771	0.20132992175220574	0.6186643693820691	0.4276198005102571	0.19719208450063822	0.9193764493443216	0.8094243317314065	0.19692356360081473	1.1383542171775913	1.1831142691276366	0.20158760726628325	0.9604441451977432	1.2741830246297638	0.14398912768243202	0.9922259940295453	1.2658015592696046	0.20471770836275816	1.232743719742198	1.2292512830496973	0.3002002362051092	0.3680130400741418	-0.017119327679037934	0.3181765206456769	0.15762870489403075	-0.1959394850174241	0.2985003996003988	0.15275097029268928	-0.03860733709304759	0.45886268677298336	0.3508484237900157	0.06760137994513538	0.5316331799552936	0.5252135327676422	0.30486084704132865	0.5082820739925101	0.5953848068978738	0.52188845480254	0.45893271020047427	0.6873551060164451	0.6034137946198832	0.47347180268759187	0.6970395525260359	0.6333767876883791	0.5102577502344227	0.7341885312689149	0.6145055405564759	0.12467185866450564	0.4049761032613638	0.05112645583223003	0.09295220773013456	0.5319582266800458	0.27863794725070173	0.07982873813621472	0.655680187027727	0.5290574025016593	0.12533160936967955	0.6788220970929089	0.6184007403286793	0.10652586508241887	0.6842494367750493	0.6355733632143876	0.05774090229240987	0.7079906480270081	0.6253155634066316
351	5.9491525423728815	0.41234975073159535	0.6224340874394169	0.43519087143162494	0.4044238087778189	0.9169012788518409	0.8032828542639688	0.39802961888070576	1.1598550156460248	1.1879681219551708	0.34248270034159123	0.948374147082226	1.2864220436617604	0.4159802884091956	0.9570433732037305	1.2771811675161384	0.36298711913856446	1.2706542636596474	1.2098512663482357	0.20133656802957403	0.618268455954899	0.4272951190325045	0.19723481867406176	0.9184557531977502	0.8083510911653198	0.19687853338157799	1.138375351857358	1.1830970350067989	0.20150917435562035	0.960300925536013	1.2741710714818997	0.1439882329598846	0.9922252591175977	1.2658110675330272	0.20471783271659952	1.2326021244251542	1.2289422629103792	0.3002685085011445	0.3690488483886796	-0.018625493034995406	0.31869600947789306	0.16180857820658548	-0.19872570863029151	0.2983970871302176	0.15249439281915034	-0.03980268936989372	0.46043503254824053	0.35093814702215514	0.06749754640173615	0.5302964301421088	0.5301072028409761	0.30489845608305893	0.5055110791678614	0.591608283317923	0.5243180110805313	0.4583743191820519	0.6935334707541285	0.6048969294409967	0.4731164228129275	0.6982738298749018	0.6367542946168248	0.5101122493155905	0.7401741340886452	0.617463634406535	0.12428790402059912	0.41147675908280146	0.048906422460429894	0.09293492184779532	0.5318443448259167	0.27827628716845415	0.07903450942764642	0.6538505532648166	0.5294112774474259	0.12569559324077792	0.6787184132469111	0.6201789521232367	0.10526342686706121	0.6843686986826202	0.6376163765026166	0.05862147758238552	0.6975926913743316	0.6265670664328865
